<svg xmlns="http://www.w3.org/2000/svg" height="19" width="19"><g fill="none" fill-rule="evenodd"><path fill="#4285f4" d="M18.324 9.889c0-.639-.057-1.252-.164-1.841H9.684v3.481h4.844a4.14 4.14 0 0 1-1.796 2.716v2.259h2.908c1.702-1.567 2.684-3.875 2.684-6.615z"/><path fill="#34a853" d="M9.684 18.684c2.43 0 4.467-.806 5.956-2.18l-2.908-2.259c-.806.54-1.837.86-3.048.86-2.344 0-4.328-1.584-5.036-3.711H1.641v2.332a8.997 8.997 0 0 0 8.043 4.958z"/><path fill="#fbbc05" d="M4.648 11.394a5.41 5.41 0 0 1-.282-1.71c0-.593.102-1.17.282-1.71V5.642H1.641a8.996 8.996 0 0 0-.957 4.042c0 1.452.348 2.827.957 4.042z"/><path fill="#ea4335" d="M9.684 4.264c1.321 0 2.508.454 3.44 1.345l2.582-2.58C14.147 1.575 12.11.683 9.684.683a8.997 8.997 0 0 0-8.043 4.958l3.007 2.332c.708-2.127 2.692-3.71 5.036-3.71z"/><path d="M.684.684h18v18h-18z"/></g></svg>