<svg width="63" height="8" viewBox="0 0 63 8" fill="none" xmlns="http://www.w3.org/2000/svg">
<path d="M0.646447 3.64645C0.451184 3.84171 0.451184 4.15829 0.646447 4.35355L3.82843 7.53553C4.02369 7.7308 4.34027 7.7308 4.53553 7.53553C4.7308 7.34027 4.7308 7.02369 4.53553 6.82843L1.70711 4L4.53553 1.17157C4.7308 0.976311 4.7308 0.659729 4.53553 0.464466C4.34027 0.269204 4.02369 0.269204 3.82843 0.464466L0.646447 3.64645ZM62.3536 4.35356C62.5488 4.1583 62.5488 3.84171 62.3536 3.64645L59.1716 0.464471C58.9763 0.269209 58.6597 0.269209 58.4645 0.464471C58.2692 0.659733 58.2692 0.976316 58.4645 1.17158L61.2929 4.00001L58.4645 6.82843C58.2692 7.02369 58.2692 7.34028 58.4645 7.53554C58.6597 7.7308 58.9763 7.7308 59.1716 7.53554L62.3536 4.35356ZM1 4.5L62 4.50001L62 3.50001L1 3.5L1 4.5Z" fill="#212121"/>
</svg>
