<svg width="12" height="17" viewBox="0 0 12 17" fill="none" xmlns="http://www.w3.org/2000/svg">
<path d="M5.15199 16.6364H6.81392L6.8331 15.1406C9.63281 14.9233 11.2628 13.4915 11.2756 11.2031C11.2628 9.11293 9.85014 7.83452 7.26776 7.26562L6.92898 7.18892L6.96733 4.46591C7.6321 4.68324 8.00923 5.15625 8.06676 5.83381H11.0966C11.071 3.64134 9.51136 2.08807 6.99929 1.78125L7.01847 0.272726H5.35653L5.33736 1.76207C2.7358 2.01136 0.933239 3.56463 0.952415 5.79545C0.946023 7.78338 2.33949 8.90199 4.60227 9.41974L5.24148 9.56676L5.20312 12.4624C4.27628 12.245 3.70099 11.6314 3.64347 10.6406H0.613636C0.645597 13.4148 2.39702 14.8722 5.17116 15.1278L5.15199 16.6364ZM6.86506 12.456L6.89702 10.0014C7.68963 10.2891 8.05398 10.647 8.06676 11.1967C8.05398 11.804 7.62571 12.2642 6.86506 12.456ZM5.27344 6.76705C4.60227 6.51136 4.20597 6.14702 4.22514 5.57812C4.23153 5.02841 4.58949 4.60014 5.3054 4.42756L5.27344 6.76705Z" fill="black" fill-opacity="0.87"/>
</svg>
