<?xml version="1.0" encoding="UTF-8" ?>
<!DOCTYPE svg PUBLIC "-//W3C//DTD SVG 1.1//EN" "http://www.w3.org/Graphics/SVG/1.1/DTD/svg11.dtd">
<svg width="123pt" height="158pt" viewBox="0 0 123 158" version="1.1" xmlns="http://www.w3.org/2000/svg">
<g id="#ffffffff">
<path fill="#ffffff" opacity="1.00" d=" M 32.74 74.58 C 46.77 60.58 60.77 46.56 74.82 32.60 C 73.91 52.38 73.04 72.17 72.12 91.95 C 67.42 84.80 62.79 77.60 58.10 70.44 C 49.64 71.78 41.20 73.21 32.74 74.58 Z" />
</g>
<g id="#3aa776ff">
<path fill="#3aa776" opacity="1.00" d=" M 58.26 5.38 C 72.17 4.44 86.37 8.93 97.16 17.77 C 111.43 29.14 119.49 47.83 117.78 66.02 C 116.88 75.37 114.03 84.79 108.29 92.35 C 93.86 113.27 79.49 134.22 65.08 155.14 C 63.83 157.61 60.09 157.64 58.81 155.18 C 44.41 134.29 30.04 113.36 15.64 92.46 C 9.67 84.59 6.74 74.75 5.99 64.99 C 4.83 49.01 11.07 32.72 22.51 21.52 C 31.98 12.07 44.91 6.22 58.26 5.38 M 32.74 74.58 C 41.20 73.21 49.64 71.78 58.10 70.44 C 62.79 77.60 67.42 84.80 72.12 91.95 C 73.04 72.17 73.91 52.38 74.82 32.60 C 60.77 46.56 46.77 60.58 32.74 74.58 Z" />
</g>
</svg>
