<?xml version="1.0" encoding="UTF-8" ?>
<!DOCTYPE svg PUBLIC "-//W3C//DTD SVG 1.1//EN" "http://www.w3.org/Graphics/SVG/1.1/DTD/svg11.dtd">
<svg width="250pt" height="61pt" viewBox="0 0 250 61" version="1.1" xmlns="http://www.w3.org/2000/svg">
<g id="#ffffffff">
<path fill="#ffffff" opacity="1.00" d=" M 85.73 0.00 L 96.12 0.00 C 96.12 15.30 96.12 30.59 96.12 45.89 C 92.64 45.90 89.17 45.90 85.69 45.89 C 85.74 45.34 85.86 44.24 85.92 43.69 C 80.83 48.04 72.65 47.98 67.80 43.30 C 60.38 36.83 61.60 23.04 70.53 18.50 C 75.39 15.75 81.42 16.72 85.84 19.88 C 85.61 13.25 85.77 6.63 85.73 0.00 M 76.53 26.67 C 73.38 28.50 72.51 33.18 75.04 35.91 C 77.85 39.60 84.37 38.41 85.83 34.02 C 88.00 28.77 81.15 23.28 76.53 26.67 Z" />
<path fill="#ffffff" opacity="1.00" d=" M 124.84 0.00 L 134.89 0.00 C 134.90 15.30 134.87 30.60 134.90 45.89 C 131.53 45.90 128.16 45.90 124.79 45.90 C 124.86 45.26 125.01 43.99 125.08 43.36 C 120.31 47.97 112.32 47.98 107.27 43.82 C 99.23 37.37 100.40 22.37 110.20 18.21 C 115.03 15.71 120.77 16.92 124.96 20.10 C 124.71 13.40 124.89 6.70 124.84 0.00 M 116.18 26.28 C 113.13 27.74 111.32 31.78 113.27 34.82 C 115.32 39.27 122.51 39.00 124.49 34.60 C 127.35 29.75 121.06 23.52 116.18 26.28 Z" />
<path fill="#ffffff" opacity="1.00" d=" M 25.19 34.11 C 24.08 26.00 29.94 17.74 37.92 16.06 C 45.40 14.12 53.79 18.11 57.02 25.12 C 59.39 30.30 59.07 36.85 55.65 41.51 C 51.15 48.00 46.60 54.46 42.16 61.00 L 41.68 61.00 C 37.55 55.53 33.85 49.77 29.86 44.20 C 27.69 41.18 25.40 37.96 25.19 34.11 M 33.77 35.86 C 36.09 35.51 38.42 35.14 40.74 34.71 C 42.08 36.74 43.40 38.79 44.74 40.82 C 44.96 35.28 45.31 29.74 45.52 24.20 C 41.61 28.09 37.68 31.97 33.77 35.86 Z" />
<path fill="#ffffff" opacity="1.00" d=" M 10.51 21.76 C 13.36 18.46 17.49 16.88 21.81 16.96 C 21.94 20.23 21.91 23.50 22.00 26.77 C 19.51 26.37 16.85 25.55 14.40 26.62 C 11.89 27.60 10.92 30.45 10.77 32.92 C 10.58 37.24 10.76 41.57 10.72 45.89 C 7.15 45.90 3.57 45.90 0.00 45.89 L 0.00 17.71 C 3.61 17.72 7.23 17.71 10.84 17.73 C 10.76 18.74 10.59 20.76 10.51 21.76 Z" />
<path fill="#ffffff" opacity="1.00" d=" M 142.64 22.51 C 147.00 16.20 156.79 14.96 162.51 20.15 C 162.52 19.54 162.53 18.32 162.54 17.71 C 165.98 17.72 169.43 17.71 172.88 17.72 C 172.80 27.11 172.84 36.50 172.85 45.88 C 169.17 45.95 165.49 45.95 161.82 45.67 L 163.27 43.20 C 158.98 46.84 152.72 48.20 147.59 45.46 C 139.23 41.58 137.21 29.59 142.64 22.51 M 154.16 26.20 C 150.21 27.54 148.88 33.25 151.92 36.15 C 154.87 39.60 161.07 38.28 162.46 33.98 C 164.49 29.22 158.79 23.87 154.16 26.20 Z" />
<path fill="#ffffff" opacity="1.00" d=" M 188.42 20.67 C 192.97 15.77 201.08 15.74 206.05 19.99 C 213.10 25.37 213.57 37.11 207.04 43.09 C 202.21 47.95 193.63 48.21 188.52 43.63 C 188.63 49.16 188.61 54.69 188.53 60.22 C 185.21 60.04 181.88 60.20 178.55 60.13 C 178.46 45.99 178.56 31.85 178.50 17.71 C 181.88 17.72 185.27 17.70 188.66 17.73 C 188.60 18.46 188.48 19.93 188.42 20.67 M 188.48 32.05 C 188.33 35.42 191.63 38.40 194.98 37.98 C 198.46 38.26 200.43 34.89 201.35 32.03 C 200.65 29.64 199.49 27.07 196.98 26.12 C 193.14 24.26 188.17 27.88 188.48 32.05 Z" />
<path fill="#ffffff" opacity="1.00" d=" M 226.34 20.34 C 230.87 16.33 237.86 15.69 242.87 19.17 C 247.31 21.87 249.13 27.04 250.00 31.89 L 250.00 32.11 C 249.21 36.28 247.87 40.68 244.51 43.52 C 239.58 48.01 231.54 47.94 226.44 43.75 C 226.56 49.22 226.52 54.69 226.48 60.16 C 223.15 60.13 219.82 60.15 216.49 60.15 C 216.40 46.01 216.50 31.86 216.44 17.72 C 219.83 17.71 223.23 17.71 226.63 17.73 C 226.56 18.38 226.41 19.68 226.34 20.34 M 230.13 26.19 C 226.42 27.80 224.88 33.12 227.95 36.07 C 231.05 39.78 237.96 37.99 238.70 33.16 C 239.90 28.49 234.39 24.11 230.13 26.19 Z" />
</g>
</svg>
